<svg width="94" height="46" viewBox="0 0 94 46" fill="none" xmlns="http://www.w3.org/2000/svg">
<path d="M41.35 15H35.6V10H52.6V15H46.85V45H41.35V15ZM63.2629 45.5C60.5962 45.5 58.5629 44.75 57.1629 43.25C55.7629 41.7167 55.0629 39.5333 55.0629 36.7V10H60.5629V37.1C60.5629 38.3 60.7962 39.1667 61.2629 39.7C61.7629 40.2333 62.4629 40.5 63.3629 40.5C64.2629 40.5 64.9462 40.2333 65.4129 39.7C65.9129 39.1667 66.1629 38.3 66.1629 37.1V10H71.4629V36.7C71.4629 39.5333 70.7629 41.7167 69.3629 43.25C67.9629 44.75 65.9296 45.5 63.2629 45.5ZM75.3801 10H83.5301C86.3634 10 88.4301 10.6667 89.7301 12C91.0301 13.3 91.6801 15.3167 91.6801 18.05V20.2C91.6801 23.8333 90.4801 26.1333 88.0801 27.1V27.2C89.4134 27.6 90.3467 28.4167 90.8801 29.65C91.4467 30.8833 91.7301 32.5333 91.7301 34.6V40.75C91.7301 41.75 91.7634 42.5667 91.8301 43.2C91.8967 43.8 92.0634 44.4 92.3301 45H86.7301C86.5301 44.4333 86.3967 43.9 86.3301 43.4C86.2634 42.9 86.2301 42 86.2301 40.7V34.3C86.2301 32.7 85.9634 31.5833 85.4301 30.95C84.9301 30.3167 84.0467 30 82.7801 30H80.8801V45H75.3801V10ZM82.8801 25C83.9801 25 84.7967 24.7167 85.3301 24.15C85.8967 23.5833 86.1801 22.6333 86.1801 21.3V18.6C86.1801 17.3333 85.9467 16.4167 85.4801 15.85C85.0467 15.2833 84.3467 15 83.3801 15H80.8801V25H82.8801Z" fill="white"/>
<circle cx="17.5" cy="27.5" r="17.5" fill="#FF2258"/>
</svg>
